<svg width="40" height="40" viewBox="0 0 40 40" fill="none" xmlns="http://www.w3.org/2000/svg">
<path d="M20 0C16.0444 0 12.1776 1.17298 8.8886 3.37061C5.59962 5.56824 3.03617 8.69181 1.52242 12.3463C0.00866568 16.0009 -0.387401 20.0222 0.384303 23.9018C1.15601 27.7814 3.06082 31.3451 5.85787 34.1421C8.65492 36.9392 12.2186 38.844 16.0982 39.6157C19.9778 40.3874 23.9992 39.9913 27.6537 38.4776C31.3082 36.9638 34.4318 34.4004 36.6294 31.1114C38.827 27.8224 40 23.9556 40 20C40 17.3736 39.4827 14.7728 38.4776 12.3463C37.4725 9.91982 35.9993 7.71504 34.1421 5.85786C32.285 4.00069 30.0802 2.5275 27.6537 1.52241C25.2272 0.517315 22.6264 0 20 0V0ZM20 36C16.8355 36 13.7421 35.0616 11.1109 33.3035C8.4797 31.5454 6.42894 29.0466 5.21794 26.1229C4.00693 23.1993 3.69008 19.9823 4.30745 16.8786C4.92481 13.7749 6.44866 10.9239 8.6863 8.68629C10.9239 6.44865 13.7749 4.9248 16.8786 4.30744C19.9823 3.69007 23.1993 4.00693 26.1229 5.21793C29.0466 6.42893 31.5454 8.47969 33.3035 11.1109C35.0616 13.7421 36 16.8355 36 20C36 24.2435 34.3143 28.3131 31.3137 31.3137C28.3131 34.3143 24.2435 36 20 36V36Z" fill="#9E9D9C"/>
<path d="M20 8.00013C18.1435 8.00013 16.363 8.73763 15.0503 10.0504C13.7375 11.3631 13 13.1436 13 15.0001C13 15.5306 13.2107 16.0393 13.5858 16.4143C13.9609 16.7894 14.4696 17.0001 15 17.0001C15.5304 17.0001 16.0391 16.7894 16.4142 16.4143C16.7893 16.0393 17 15.5306 17 15.0001C17 14.4068 17.1759 13.8268 17.5056 13.3334C17.8352 12.8401 18.3038 12.4556 18.8519 12.2285C19.4001 12.0014 20.0033 11.942 20.5853 12.0578C21.1672 12.1735 21.7018 12.4593 22.1213 12.8788C22.5409 13.2984 22.8266 13.8329 22.9424 14.4149C23.0581 14.9968 22.9987 15.6 22.7716 16.1482C22.5446 16.6964 22.1601 17.1649 21.6667 17.4945C21.1734 17.8242 20.5933 18.0001 20 18.0001C19.4696 18.0001 18.9609 18.2108 18.5858 18.5859C18.2107 18.961 18 19.4697 18 20.0001V24.0001C18 24.5306 18.2107 25.0393 18.5858 25.4143C18.9609 25.7894 19.4696 26.0001 20 26.0001C20.5304 26.0001 21.0391 25.7894 21.4142 25.4143C21.7893 25.0393 22 24.5306 22 24.0001V21.6801C23.6162 21.2081 25.0073 20.1679 25.917 18.751C26.8266 17.3342 27.1935 15.6363 26.9499 13.9703C26.7063 12.3043 25.8688 10.7824 24.5916 9.68531C23.3144 8.58818 21.6837 7.98969 20 8.00013V8.00013Z" fill="#9E9D9C"/>
<path d="M20 32C21.1046 32 22 31.1046 22 30C22 28.8954 21.1046 28 20 28C18.8954 28 18 28.8954 18 30C18 31.1046 18.8954 32 20 32Z" fill="#9E9D9C"/>
</svg>
