<svg width="37" height="38" viewBox="0 0 37 38" fill="none" xmlns="http://www.w3.org/2000/svg">
<path d="M34.6 21.8601C34.0961 21.7031 33.5505 21.7516 33.0822 21.9951C32.6139 22.2386 32.2608 22.6574 32.1 23.1601C31.1551 26.0491 29.3131 28.5612 26.8419 30.3309C24.3707 32.1007 21.3993 33.0358 18.36 33.0001C14.6007 33.0428 10.9779 31.593 8.28595 28.9686C5.59402 26.3441 4.05271 22.7593 4 19.0001C4.05271 15.2409 5.59402 11.6561 8.28595 9.03164C10.9779 6.4072 14.6007 4.95739 18.36 5.00012C21.7552 4.99192 25.0458 6.17373 27.66 8.34012L23.32 7.62012C23.0599 7.57732 22.7939 7.58636 22.5373 7.64672C22.2807 7.70709 22.0386 7.81758 21.8248 7.97185C21.6111 8.12612 21.4299 8.32112 21.2918 8.54564C21.1537 8.77016 21.0613 9.01977 21.02 9.28012C20.9772 9.54022 20.9862 9.80622 21.0466 10.0628C21.107 10.3194 21.2175 10.5616 21.3717 10.7753C21.526 10.989 21.721 11.1702 21.9455 11.3083C22.17 11.4464 22.4197 11.5388 22.68 11.5801L31.16 12.9801H31.5C31.7319 12.9798 31.962 12.9392 32.18 12.8601C32.2533 12.8323 32.321 12.7917 32.38 12.7401C32.5234 12.6868 32.6582 12.6127 32.78 12.5201L32.96 12.3001C32.96 12.2001 33.14 12.1201 33.22 12.0001C33.3 11.8801 33.22 11.8001 33.32 11.7201C33.3753 11.6036 33.4221 11.4833 33.46 11.3601L34.96 3.36012C35.0099 3.09747 35.0076 2.82757 34.9532 2.56582C34.8988 2.30408 34.7933 2.05561 34.6429 1.8346C34.4925 1.6136 34.3 1.42439 34.0764 1.27778C33.8529 1.13116 33.6026 1.03002 33.34 0.980116C33.0774 0.930214 32.8075 0.932531 32.5457 0.986937C32.284 1.04134 32.0355 1.14677 31.8145 1.2972C31.3682 1.60101 31.0608 2.06968 30.96 2.60012L30.42 5.50012C27.072 2.5986 22.7904 1.00098 18.36 1.00012C13.5399 0.95745 8.89967 2.82871 5.45761 6.20328C2.01555 9.57785 0.0527817 14.1801 0 19.0001C0.0527817 23.8201 2.01555 28.4224 5.45761 31.797C8.89967 35.1715 13.5399 37.0428 18.36 37.0001C22.2663 37.0601 26.0886 35.8644 29.2643 33.5888C32.4399 31.3133 34.801 28.0783 36 24.3601C36.0759 24.1041 36.0997 23.8354 36.07 23.57C36.0404 23.3046 35.9579 23.0478 35.8274 22.8148C35.6969 22.5818 35.5211 22.3772 35.3103 22.2133C35.0995 22.0493 34.858 21.9292 34.6 21.8601Z" fill="#9E9D9C"/>
</svg>
